<svg height="43.179" viewBox="0 0 27.75 43.179" width="27.75" xmlns="http://www.w3.org/2000/svg"><path d="m29.652-17.652-19.875 19.875a1.682 1.682 0 0 1 -2.411 0l-4.446-4.446a1.647 1.647 0 0 1 -.509-1.205 1.647 1.647 0 0 1 .509-1.206l14.223-14.223-14.223-14.223a1.647 1.647 0 0 1 -.509-1.205 1.647 1.647 0 0 1 .509-1.205l4.446-4.446a1.647 1.647 0 0 1 1.205-.509 1.647 1.647 0 0 1 1.205.509l19.876 19.874a1.647 1.647 0 0 1 .509 1.205 1.647 1.647 0 0 1 -.509 1.205z" fill="#fff" transform="translate(-2.411 40.447)"/></svg>