<svg height="22" viewBox="0 0 20.429 22" width="20.429" xmlns="http://www.w3.org/2000/svg"><path d="m-8.643 1.571h3.536v-3.535h-3.536zm4.321 0h3.929v-3.535h-3.928zm-4.321-4.321h3.536v-3.929h-3.536zm4.321 0h3.929v-3.929h-3.928zm-4.321-4.714h3.536v-3.536h-3.536zm9.036 9.035h3.928v-3.535h-3.928zm-4.714-9.035h3.928v-3.536h-3.928zm9.428 9.035h3.536v-3.535h-3.536zm-4.714-4.321h3.928v-3.929h-3.928zm-4.322-10.607v-3.536a.378.378 0 0 0 -.117-.276.378.378 0 0 0 -.276-.117h-.786a.378.378 0 0 0 -.276.117.378.378 0 0 0 -.117.276v3.536a.378.378 0 0 0 .117.276.378.378 0 0 0 .276.117h.786a.378.378 0 0 0 .276-.117.378.378 0 0 0 .117-.276zm9.036 10.607h3.536v-3.929h-3.536zm-4.714-4.714h3.928v-3.536h-3.928zm4.714 0h3.536v-3.536h-3.536zm.393-5.893v-3.536a.378.378 0 0 0 -.117-.276.378.378 0 0 0 -.276-.117h-.786a.378.378 0 0 0 -.276.117.378.378 0 0 0 -.117.276v3.536a.378.378 0 0 0 .117.276.378.378 0 0 0 .276.117h.786a.378.378 0 0 0 .276-.117.378.378 0 0 0 .117-.276zm4.714-.786v15.714a1.51 1.51 0 0 1 -.467 1.1 1.51 1.51 0 0 1 -1.1.467h-17.29a1.51 1.51 0 0 1 -1.1-.467 1.51 1.51 0 0 1 -.467-1.1v-15.714a1.51 1.51 0 0 1 .467-1.1 1.51 1.51 0 0 1 1.1-.467h1.571v-1.179a1.891 1.891 0 0 1 .577-1.387 1.891 1.891 0 0 1 1.387-.577h.786a1.891 1.891 0 0 1 1.387.577 1.891 1.891 0 0 1 .577 1.387v1.179h4.715v-1.179a1.891 1.891 0 0 1 .577-1.387 1.891 1.891 0 0 1 1.387-.577h.786a1.891 1.891 0 0 1 1.387.577 1.891 1.891 0 0 1 .577 1.387v1.179h1.572a1.51 1.51 0 0 1 1.1.467 1.51 1.51 0 0 1 .471 1.1z" fill="#fff" transform="translate(10.214 18.857)"/></svg>