<svg height="18.462" viewBox="0 0 20 18.462" width="20" xmlns="http://www.w3.org/2000/svg"><path d="m15.156 16.552a.755.755 0 1 0 -.541.228.739.739 0 0 0 .541-.228zm3.077 0a.755.755 0 1 0 -.541.228.739.739 0 0 0 .541-.228zm1.767-3.233v3.846a1.149 1.149 0 0 1 -1.154 1.154h-17.692a1.113 1.113 0 0 1 -.817-.337 1.113 1.113 0 0 1 -.337-.817v-3.846a1.113 1.113 0 0 1 .337-.819 1.113 1.113 0 0 1 .817-.337h5.589l1.622 1.637a2.321 2.321 0 0 0 3.269 0l1.635-1.635h5.577a1.149 1.149 0 0 1 1.154 1.154zm-3.906-6.839a.694.694 0 0 1 -.168.841l-5.385 5.385a.755.755 0 0 1 -1.082 0l-5.384-5.385a.694.694 0 0 1 -.168-.841.719.719 0 0 1 .709-.469h3.076v-5.385a.739.739 0 0 1 .229-.54.739.739 0 0 1 .541-.228h3.077a.739.739 0 0 1 .541.228.739.739 0 0 1 .228.541v5.384h3.077a.719.719 0 0 1 .709.469z" transform="translate(0 .143)"/></svg>