<svg fill="none" height="41" viewBox="0 0 40 41" width="40" xmlns="http://www.w3.org/2000/svg" xmlns:xlink="http://www.w3.org/1999/xlink"><clipPath id="a"><path d="m0 .696289h40v40h-40z"/></clipPath><g clip-path="url(#a)"><path d="m20 40.6963c11.0457 0 20-8.9543 20-20 0-11.04571-8.9543-20.000011-20-20.000011s-20 8.954301-20 20.000011c0 11.0457 8.9543 20 20 20z" fill="#fff"/><g fill="#3d3e44"><path d="m11.985 17.0133h3.441v11.0449h-3.441zm1.7205-5.4889c1.0994 0 1.9891.8896 1.9891 1.9891s-.8897 1.9891-1.9891 1.9891c-1.0995 0-1.9975-.8896-1.9975-1.9891s.8896-1.9891 1.9975-1.9891z"/><path d="m17.5826 17.0133h3.29v1.5107h.0419c.4616-.8729 1.5779-1.7877 3.2481-1.7877 3.4746 0 4.1208 2.2829 4.1208 5.2623v6.0596h-3.4326v-5.3714c0-1.2841-.0252-2.9291-1.7877-2.9291s-2.0562 1.3932-2.0562 2.8368v5.4637h-3.4327v-11.0449z"/></g></g></svg>