<svg fill="none" height="41" viewBox="0 0 40 41" width="40" xmlns="http://www.w3.org/2000/svg" xmlns:xlink="http://www.w3.org/1999/xlink"><clipPath id="a"><path d="m0 .696289h40v40h-40z"/></clipPath><g clip-path="url(#a)"><path d="m20 40.6963c11.0457 0 20-8.9543 20-20 0-11.04571-8.9543-20.000011-20-20.000011s-20 8.954301-20 20.000011c0 11.0457 8.9543 20 20 20z" fill="#fff"/><g fill="#3d3e44"><path d="m25.5138 14.0068c-.6714 0-1.2169.5456-1.2169 1.217s.5455 1.2169 1.2169 1.2169c.6715 0 1.217-.5455 1.217-1.2169s-.5455-1.217-1.217-1.217z"/><path d="m20.084 15.5684c-2.8283 0-5.1279 2.2996-5.1279 5.1279 0 2.8284 2.2996 5.128 5.1279 5.128 2.8284 0 5.128-2.2996 5.128-5.128 0-2.8283-2.2996-5.1279-5.128-5.1279zm0 8.4095c-1.8128 0-3.2815-1.4771-3.2815-3.2816 0-1.8044 1.4771-3.2815 3.2815-3.2815 1.8045 0 3.2816 1.4771 3.2816 3.2815 0 1.8045-1.4771 3.2816-3.2816 3.2816z"/><path d="m24.1543 31.1032h-8.3089c-3.4494 0-6.25263-2.8032-6.25263-6.2527v-8.3088c0-3.4494 2.80323-6.2526 6.25263-6.2526h8.3089c3.4494 0 6.2526 2.8032 6.2526 6.2526v8.3088c0 3.4495-2.8032 6.2527-6.2526 6.2527zm-8.3089-18.8586c-2.3668 0-4.2971 1.9303-4.2971 4.2971v8.3088c0 2.3668 1.9303 4.2971 4.2971 4.2971h8.3089c2.3667 0 4.2971-1.9303 4.2971-4.2971v-8.3088c0-2.3668-1.9304-4.2971-4.2971-4.2971z"/></g></g></svg>