<svg height="55.041" viewBox="0 0 55.041 55.041" width="55.041" xmlns="http://www.w3.org/2000/svg"><path d="m33.256-34.747v2.078a1 1 0 0 1 -.309.731 1 1 0 0 1 -.731.309h-7.274v7.275a1 1 0 0 1 -.309.731 1 1 0 0 1 -.731.309h-2.078a1 1 0 0 1 -.731-.309 1 1 0 0 1 -.309-.731v-7.276h-7.274a1 1 0 0 1 -.731-.309 1 1 0 0 1 -.309-.731v-2.078a1 1 0 0 1 .309-.731 1 1 0 0 1 .731-.309h7.275v-7.275a1 1 0 0 1 .309-.731 1 1 0 0 1 .731-.309h2.075a1 1 0 0 1 .731.309 1 1 0 0 1 .309.731v7.275h7.275a1 1 0 0 1 .731.309 1 1 0 0 1 .31.732zm-.13 11.334a14.039 14.039 0 0 0 4.287-10.295 14.012 14.012 0 0 0 -4.271-10.279 14.012 14.012 0 0 0 -10.279-4.271 14.012 14.012 0 0 0 -10.279 4.271 14.012 14.012 0 0 0 -4.27 10.279 14.012 14.012 0 0 0 4.271 10.279 14.012 14.012 0 0 0 10.279 4.271 13.985 13.985 0 0 0 10.262-4.255zm19.713 13.8a3.979 3.979 0 0 1 1.2 2.923 4.005 4.005 0 0 1 -1.218 2.939 4.005 4.005 0 0 1 -2.939 1.218 3.859 3.859 0 0 1 -2.923-1.234l-11.138-11.105a22.239 22.239 0 0 1 -12.958 4.027 22.466 22.466 0 0 1 -8.882-1.8 22.86 22.86 0 0 1 -7.307-4.871 22.86 22.86 0 0 1 -4.874-7.31 22.466 22.466 0 0 1 -1.8-8.882 22.466 22.466 0 0 1 1.8-8.882 22.86 22.86 0 0 1 4.874-7.31 22.86 22.86 0 0 1 7.307-4.871 22.466 22.466 0 0 1 8.882-1.8 22.466 22.466 0 0 1 8.882 1.8 22.86 22.86 0 0 1 7.308 4.871 22.86 22.86 0 0 1 4.871 7.307 22.466 22.466 0 0 1 1.8 8.882 22.239 22.239 0 0 1 -4.024 12.961z" fill="#fff" stroke="#fff" transform="translate(.5 57.072)"/></svg>