<svg fill="none" height="41" viewBox="0 0 40 41" width="40" xmlns="http://www.w3.org/2000/svg" xmlns:xlink="http://www.w3.org/1999/xlink"><clipPath id="a"><path d="m0 .696289h40v40h-40z"/></clipPath><g clip-path="url(#a)"><path d="m20 40.6963c11.0457 0 20-8.9543 20-20 0-11.04571-8.9543-20.000011-20-20.000011s-20 8.954301-20 20.000011c0 11.0457 8.9543 20 20 20z" fill="#fff"/><path d="m22.2162 33.4365v-11.1456h3.718l.705-4.6076h-4.423v-2.9962c0-1.259.621-2.4927 2.6017-2.4927h2.0143v-3.92781s-1.8296-.31054-3.5669-.31054c-3.6425 0-6.026 2.20735-6.026 6.20225v3.5166h-4.0538v4.6076h4.0538v11.1456h4.9853z" fill="#3d3e44"/></g></svg>