<svg enable-background="new 0 0 20 18.5" height="18.5" viewBox="0 0 20 18.5" width="20" xmlns="http://www.w3.org/2000/svg"><path d="m15.2 16.7c.3-.3.3-.8 0-1.1s-.8-.3-1.1 0-.3.8 0 1.1c.1.1.3.2.5.2s.4-.1.6-.2zm3 0c.3-.3.3-.8 0-1.1s-.8-.3-1.1 0-.3.8 0 1.1c.1.1.3.2.5.2.3 0 .5-.1.6-.2zm1.8-3.2v3.8c0 .6-.5 1.2-1.1 1.2h-17.7c-.3 0-.6-.1-.8-.3-.3-.3-.4-.6-.4-.9v-3.8c0-.3.1-.6.3-.8s.5-.3.8-.3h5.6l1.6 1.6c.9.9 2.4.9 3.3 0l1.6-1.6h5.6c.7-.1 1.2.4 1.2 1.1zm-3.9-6.9c.1.3.1.6-.2.8l-5.4 5.4c-.3.3-.8.3-1.1 0l-5.3-5.3c-.3-.2-.3-.6-.2-.9s.4-.5.7-.4h3.1v-5.4c0-.2.1-.4.2-.5.2-.2.4-.3.6-.3h3.1c.2 0 .4.1.5.2s.2.3.2.5v5.4h3.1c.3-0 .6.2.7.5z" fill="#fff"/></svg>