<svg height="33.58" viewBox="0 0 35.449 33.58" width="35.449" xmlns="http://www.w3.org/2000/svg"><path d="m45.777 12.475q-4.447.838-6.252 6.445a17.622 17.622 0 0 0 -.9 5.479 3.954 3.954 0 0 0 .032.548q.032.226.1 1h7.025v14.053h-13.733v-12.959q0-9.539 3.8-14.7a14.114 14.114 0 0 1 9.926-5.93zm21.721 0a7.227 7.227 0 0 0 -5.382 4 16.346 16.346 0 0 0 -1.837 7.863q0 .387.032.773a4.4 4.4 0 0 0 .161.838h7.028v14.051h-13.795v-12.959a28.587 28.587 0 0 1 3.223-13.7q3.222-6.023 10.572-6.925z" fill="#fff" transform="translate(-32.049 -6.416)"/></svg>