<svg enable-background="new 0 0 22 22" height="22" viewBox="0 0 22 22" width="22" xmlns="http://www.w3.org/2000/svg" xmlns:xlink="http://www.w3.org/1999/xlink"><clipPath id="a"><circle cx="11" cy="11" r="11"/></clipPath><g clip-path="url(#a)"><path d="m-5.7 0h33.5v22h-33.5z" fill="#2b418e"/><path d="m27.8 0h-4.2l-8.7 5.7c0-2.4 0-5.7 0-5.7h-7.7v6l-9.2-6h-3.7v3l6.6 4.3c-3.3 0-6.6 0-6.6 0v7.6h6.6l-6.6 4.3v2.8h4.3l8.6-5.6v5.6h7.7s0-3.3 0-5.7l8.8 5.7h4.1v-2.8l-6.7-4.4h6.7v-7.6s-3.3 0-6.7 0l6.7-4.4z" fill="#fff"/><g fill="#c10016"><path d="m5.1 7.2-10.8-7.2v1.9l8.1 5.4c.9-.1 1.9-.1 2.7-.1z"/><path d="m17 14.8 10.8 7.2v-1.8l-8-5.3c-1-.1-2-.1-2.8-.1z"/><path d="m7.2 14.8c-.5 0-1.3 0-2.2 0l-10.7 7.2h2.6l10.3-6.8c-0-.1-0-.2-0-.4z"/><path d="m14.9 7.2h2.1l10.9-7.1v-.1h-2.4l-10.6 6.8z"/><path d="m27.8 8.8h-14.6v-8.8h-4.4v8.8h-14.5v4.4h14.5v8.8h4.4v-8.8h14.6z"/></g></g></svg>