<svg enable-background="new 0 0 164 62" viewBox="0 0 164 62" xmlns="http://www.w3.org/2000/svg"><g fill="#1a1a18"><path d="m0 0v20.4h20.4v-20.4z"/><path d="m20.4 20.4v20.4h20.4v-20.4z"/><path d="m40.7 30.5c0 5.6 4.6 10.2 10.2 10.2 5.6 0 10.2-4.6 10.2-10.2 0-5.6-4.6-10.2-10.2-10.2-5.6.1-10.2 4.6-10.2 10.2z"/><path d="m0 20.4v20.4h20.4v-20.4z"/><path d="m40.7 0v20.4h20.4v-20.4z"/><path d="m0 40.7v20.4h20.4v-20.4z"/><path d="m20.4 40.7v20.4h20.4v-20.4z"/><path d="m40.7 40.7v20.4h20.4v-20.4z"/><path d="m68.7 0h5.1v28h-5.1z"/><path d="m83.7 15.3h-6.1l7.7 12.7h6.1z"/><path d="m72.5-2.5h5.1v10.2h-5.1z" transform="matrix(0 -1 1 0 72.5257 77.6152)"/><path d="m72.5 10.2h5.1v10.2h-5.1z" transform="matrix(0 -1 1 0 59.8019 90.339)"/><path d="m80.2 12.7c2.1 0 3.8-1.7 3.8-3.8s-1.7-3.8-3.8-3.8v-5.1c4.9 0 8.9 4 8.9 8.9s-4 8.9-8.9 8.9"/><path d="m108 5.1h5.1v22.9h-5.1z"/><path d="m101.7 5.1c-6.3 0-11.5 5.1-11.5 11.5s5.1 11.4 11.5 11.4c6.3 0 11.5-5.1 11.5-11.5s-5.2-11.4-11.5-11.4zm0 17.8c-3.5 0-6.4-2.8-6.4-6.4s2.8-6.4 6.4-6.4 6.4 2.8 6.4 6.4-2.9 6.4-6.4 6.4z"/><path d="m133.5 5.1h5.1v22.9h-5.1z"/><path d="m127.1 5.1c-6.3 0-11.5 5.1-11.5 11.5s5.2 11.4 11.5 11.4 11.5-5.1 11.5-11.5-5.2-11.4-11.5-11.4zm0 17.8c-3.5 0-6.4-2.8-6.4-6.4s2.8-6.4 6.4-6.4c3.5 0 6.4 2.8 6.4 6.4s-2.9 6.4-6.4 6.4z"/><path d="m158.9 0h5.1v28h-5.1z"/><path d="m152.5 5.1c-6.3 0-11.5 5.1-11.5 11.5s5.2 11.4 11.5 11.4 11.5-5.1 11.5-11.5-5.1-11.4-11.5-11.4zm0 17.8c-3.5 0-6.4-2.8-6.4-6.4s2.8-6.4 6.4-6.4c3.5 0 6.4 2.8 6.4 6.4s-2.8 6.4-6.4 6.4z"/><path d="m108 38.2h5.1v22.9h-5.1z"/><path d="m108 38.2v12.7c0 2.8-2.3 5.1-5.1 5.1s-5.5-2.3-5.5-5.1v-12.7h-5.1v12.7c0 5.6 4.9 10.2 10.6 10.2 5.6 0 10.2-4.6 10.2-10.2v-12.7z"/><path d="m68.7 33.1h5.1v28h-5.1z" transform="matrix(-1 -0 0 -1 142.5067 94.1562)"/><path d="m78.9 38.2c-5.6 0-10.2 4.6-10.2 10.2h5.1c0-2.8 2.3-5.1 5.1-5.1s5.5 2.3 5.5 5.1v12.7h5.1v-12.7c-.1-5.7-5-10.2-10.6-10.2z"/><path d="m117.1 38.2h5.1v22.9h-5.1z"/><circle cx="119.6" cy="33.2" r="3.1"/><path d="m129.9 60c-1.4-.7-2.6-1.5-3.4-2.7-.8-1.1-1.3-2.6-1.4-4h5.6c.1.9.5 1.8 1.3 2.4.7.6 1.6.8 2.7.8s1.9-.2 2.5-.6.9-1 .9-1.6c0-.7-.4-1.3-1.1-1.6-.7-.4-1.9-.8-3.5-1.2-1.7-.4-3-.8-4.1-1.2s-2-1.1-2.7-2c-.8-.9-1.1-2.1-1.1-3.6 0-1.2.4-2.3 1.1-3.4.7-1 1.7-1.8 3-2.4s2.9-.9 4.7-.9c2.6 0 4.8.7 6.3 2 1.6 1.3 2.4 3.1 2.6 5.3h-5.3c-.1-.9-.4-1.6-1.1-2.1s-1.5-.8-2.6-.8c-1 0-1.8.2-2.3.6s-.8.9-.8 1.6.4 1.3 1.1 1.7 1.9.8 3.5 1.2 2.9.8 4 1.2c1 .4 1.9 1.1 2.7 2s1.2 2.1 1.2 3.5c0 1.3-.4 2.4-1.1 3.4s-1.7 1.8-3 2.4-2.9.9-4.6.9c-2 .1-3.6-.2-5.1-.9z"/></g></svg>