<svg height="104.284" viewBox="0 0 129.772 104.284" width="129.772" xmlns="http://www.w3.org/2000/svg" xmlns:xlink="http://www.w3.org/1999/xlink"><clipPath id="a"><path d="m0 0h129.772v104.285h-129.772z"/></clipPath><g clip-path="url(#a)"><path d="m33.445 226.322h-29.171a4.279 4.279 0 0 1 -4.274-4.274v-51.473a4.279 4.279 0 0 1 4.274-4.275h12.477a4.279 4.279 0 0 1 4.274 4.274v34.726h16.188a4.274 4.274 0 0 1 4.091 5.51l-3.769 12.477a4.249 4.249 0 0 1 -4.091 3.038m-29.17-58.497a2.75 2.75 0 0 0 -2.747 2.747v51.473a2.75 2.75 0 0 0 2.747 2.752h29.171a2.731 2.731 0 0 0 2.63-1.953l3.769-12.477a2.747 2.747 0 0 0 -2.63-3.542h-17.714v-36.253a2.75 2.75 0 0 0 -2.747-2.747z" transform="translate(0 -143.203)"/><path d="m574.666 184.348a4.282 4.282 0 0 1 -4.112-3.1l-14.123-49.5a4.279 4.279 0 0 1 2.937-5.283l20.721-5.912a15.389 15.389 0 0 1 19.152 18.521 15.488 15.488 0 0 1 -3.512 6.587 16.846 16.846 0 0 1 .824 32.611l-20.716 5.911a4.265 4.265 0 0 1 -1.171.165m9.665-62.865a13.925 13.925 0 0 0 -3.823.538l-20.72 5.912a2.75 2.75 0 0 0 -1.888 3.4l14.123 49.5a2.75 2.75 0 0 0 3.4 1.888l20.716-5.911a15.319 15.319 0 0 0 -.977-29.707 1.362 1.362 0 0 1 -1.024-.933 1.388 1.388 0 0 1 .31-1.359 13.868 13.868 0 0 0 -10.112-23.322" transform="translate(-479.007 -103.295)"/><path d="m334.882 273.34h-38.369a4.274 4.274 0 0 1 -4.1-5.468l14.98-51.473a4.3 4.3 0 0 1 4.1-3.08h8.41a4.3 4.3 0 0 1 4.1 3.08l14.979 51.473a4.274 4.274 0 0 1 -4.1 5.468m-23.389-58.495a2.761 2.761 0 0 0 -2.638 1.98l-14.98 51.475a2.747 2.747 0 0 0 2.638 3.515h38.369a2.747 2.747 0 0 0 2.638-3.515l-14.98-51.473a2.761 2.761 0 0 0 -2.638-1.98z" transform="translate(-251.647 -183.691)"/><path d="m210.191 151.729h-10.364a4.79 4.79 0 0 1 -4.784-4.784v-10.365a4.79 4.79 0 0 1 4.784-4.784h10.364a4.79 4.79 0 0 1 4.784 4.784v10.364a4.79 4.79 0 0 1 -4.784 4.784m-10.364-18.406a3.261 3.261 0 0 0 -3.258 3.258v10.364a3.261 3.261 0 0 0 3.258 3.258h10.364a3.261 3.261 0 0 0 3.258-3.258v-10.364a3.261 3.261 0 0 0 -3.258-3.258z" transform="translate(-167.954 -113.491)"/><path d="m336.806 19.933a9.966 9.966 0 1 1 9.966-9.966 9.978 9.978 0 0 1 -9.966 9.966m0-18.406a8.439 8.439 0 1 0 8.439 8.439 8.449 8.449 0 0 0 -8.439-8.439" transform="translate(-281.445)"/><path d="m674.1 627.263a9.966 9.966 0 1 1 9.966-9.966 9.977 9.977 0 0 1 -9.966 9.966m0-18.406a8.439 8.439 0 1 0 8.439 8.44 8.449 8.449 0 0 0 -8.439-8.44" transform="translate(-571.895 -522.979)"/></g></svg>