<svg height="56.511" viewBox="0 0 152.09 56.511" width="152.09" xmlns="http://www.w3.org/2000/svg"><g fill="#fff"><path d="m37.672 28.255v-9.417h-18.834v-18.838h-18.838v56.51h56.506v-18.838h-18.834v-9.417a9.417 9.417 0 1 0 18.834 0 9.417 9.417 0 1 0 -18.834 0z"/><path d="m107.49 18.838h18.838v-18.838h-18.838z" transform="translate(-69.818)"/><path d="m200.221 8.24a8.242 8.242 0 0 0 -8.243-8.24h-10.6v25.9h4.71v-9.417h4.952l5.65 9.417h5.65l-6.3-10.5a8.228 8.228 0 0 0 4.181-7.16zm-14.127-3.53h5.888a3.533 3.533 0 1 1 0 7.065h-5.888z" transform="translate(-117.812)"/><path d="m254.613 15.224a10.595 10.595 0 1 0 0 17.622v1.784h4.71v-21.19h-4.71zm-5.884 14.7a5.888 5.888 0 1 1 5.888-5.888 5.887 5.887 0 0 1 -5.889 5.883z" transform="translate(-154.672 -8.73)"/><path d="m316.915 34.629a10.567 10.567 0 0 0 5.888-1.784v1.784h4.71v-21.189h-4.713v1.784a10.6 10.6 0 1 0 -5.888 19.406zm0-16.483a5.888 5.888 0 1 1 -5.888 5.888 5.887 5.887 0 0 1 5.888-5.887z" transform="translate(-198.964 -8.73)"/><path d="m389.973 0v6.494a10.595 10.595 0 1 0 0 17.622v1.784h4.71v-25.9zm-5.884 21.189a5.888 5.888 0 1 1 5.888-5.888 5.887 5.887 0 0 1 -5.889 5.888z" transform="translate(-242.593)"/><path d="m258.321 112.542a4.712 4.712 0 0 1 -4.71 4.71 5.024 5.024 0 0 1 -5.061-4.71v-11.772h-4.71v11.772a9.723 9.723 0 0 0 9.768 9.417 9.406 9.406 0 0 0 4.71-1.262v1.262h4.71v-21.189h-4.71v11.772z" transform="translate(-158.381 -65.453)"/><path d="m190.811 92.047a9.406 9.406 0 0 0 -4.71 1.262v-5.969h-4.71v25.9h4.71v-11.773a4.712 4.712 0 0 1 4.71-4.71 5.024 5.024 0 0 1 5.061 4.71v11.773h4.71v-11.773a9.729 9.729 0 0 0 -9.771-9.42z" transform="translate(-117.818 -56.73)"/><path d="m108.04 35.317h4.71v21.189h-4.71z"/><circle cx="2.832" cy="2.832" r="2.832" transform="matrix(.98708599 -.1601913 .1601913 .98708599 107.148 28.341)"/><path d="m342.884 110.55a27.493 27.493 0 0 0 -3.666-1.15 16.265 16.265 0 0 1 -3.224-1.093 1.7 1.7 0 0 1 -1.037-1.574 1.647 1.647 0 0 1 .761-1.444 4.589 4.589 0 0 1 4.591.2 2.677 2.677 0 0 1 1.02 1.945h4.963a6.787 6.787 0 0 0 -2.408-4.945 8.813 8.813 0 0 0 -5.853-1.833 10.54 10.54 0 0 0 -4.314.817 6.586 6.586 0 0 0 -2.817 2.227 5.317 5.317 0 0 0 -.981 3.112 4.871 4.871 0 0 0 1.055 3.3 6.511 6.511 0 0 0 2.52 1.815 27.416 27.416 0 0 0 3.761 1.15 19.289 19.289 0 0 1 3.242 1.093 1.6 1.6 0 0 1 1.02 1.5 1.786 1.786 0 0 1 -.834 1.518 3.94 3.94 0 0 1 -2.317.592 4.059 4.059 0 0 1 -2.537-.778 3.366 3.366 0 0 1 -1.167-2.211h-5.222a7.041 7.041 0 0 0 1.279 3.694 7.989 7.989 0 0 0 3.168 2.464 11.806 11.806 0 0 0 8.8.112 6.426 6.426 0 0 0 2.814-2.2 5.433 5.433 0 0 0 .981-3.186 5.047 5.047 0 0 0 -1.093-3.28 6.531 6.531 0 0 0 -2.505-1.845z" transform="translate(-213.981 -65.382)"/></g></svg>