<?xml version="1.0" standalone="no"?>
<!DOCTYPE svg PUBLIC "-//W3C//DTD SVG 20010904//EN"
 "http://www.w3.org/TR/2001/REC-SVG-20010904/DTD/svg10.dtd">
<svg version="1.0" xmlns="http://www.w3.org/2000/svg"
 width="700.000000pt" height="700.000000pt" viewBox="0 0 700.000000 700.000000"
 preserveAspectRatio="xMidYMid meet">
<metadata>
Created by potrace 1.14, written by Peter Selinger 2001-2017
</metadata>
<g transform="translate(0.000000,700.000000) scale(0.100000,-0.100000)"
fill="#000000" stroke="none">
<path d="M3505 6862 c-3 -3 -5 -597 -5 -1320 0 -724 -2 -1313 -4 -1311 -3 3
-8 38 -11 79 -3 41 -7 95 -9 120 -3 25 -7 82 -11 127 -3 45 -8 92 -10 105 -2
12 -6 61 -10 108 -4 47 -8 101 -10 120 -2 19 -6 71 -10 115 -3 44 -8 96 -10
115 -2 19 -7 71 -10 115 -7 84 -11 134 -20 224 l-6 53 -157 155 c-86 85 -331
326 -543 536 -212 210 -397 392 -411 405 l-26 23 -78 -32 c-238 -97 -600 -311
-799 -471 -114 -91 -118 -95 -208 -180 l-82 -78 326 -322 c1271 -1257 1418
-1405 1282 -1293 -27 22 -42 34 -133 105 -85 67 -186 147 -293 233 -21 17 -97
77 -169 134 l-130 103 -803 0 -803 0 -43 -107 c-99 -254 -173 -526 -204 -755
-3 -21 -7 -53 -10 -70 -9 -67 -16 -147 -21 -285 l-6 -143 418 1 c915 2 2237
-1 2233 -5 -2 -2 -44 -7 -93 -11 -50 -4 -97 -8 -106 -10 -9 -2 -61 -6 -116
-10 -54 -3 -117 -8 -139 -10 -22 -2 -71 -6 -110 -10 -84 -7 -162 -14 -230 -20
-27 -2 -84 -7 -125 -10 -41 -3 -91 -7 -110 -10 -19 -2 -74 -7 -122 -10 -47 -3
-97 -8 -109 -10 -13 -3 -73 -54 -134 -114 -60 -60 -314 -312 -564 -559 l-455
-449 13 -34 c81 -212 256 -521 414 -731 126 -169 318 -388 340 -388 5 0 53 44
107 98 54 53 412 408 796 787 383 380 714 707 733 727 20 21 40 38 45 38 7 0
-54 -82 -74 -100 -3 -3 -24 -27 -45 -55 -22 -27 -47 -59 -57 -70 -9 -11 -67
-83 -129 -160 -142 -177 -233 -289 -239 -295 -3 -3 -23 -27 -44 -54 l-39 -48
0 -789 c0 -467 4 -794 9 -799 13 -13 209 -86 339 -126 187 -59 430 -111 600
-129 33 -4 74 -9 90 -11 17 -2 91 -6 165 -10 74 -3 137 -6 140 -6 3 0 11 0 18
1 9 1 12 274 12 1328 0 729 2 1324 4 1322 3 -4 12 -101 21 -225 2 -29 6 -74 9
-100 5 -50 12 -121 21 -234 3 -36 7 -85 9 -110 5 -41 9 -95 22 -240 5 -69 13
-150 20 -215 2 -27 6 -77 9 -110 l4 -60 408 -403 c224 -222 480 -475 568 -562
l160 -159 90 38 c229 97 410 198 650 362 124 84 425 340 425 361 0 5 -42 50
-94 101 -52 51 -392 387 -756 747 -364 360 -696 689 -738 730 -118 116 -117
122 3 26 61 -48 121 -96 135 -107 14 -11 148 -117 298 -237 l273 -217 801 0
800 -1 18 36 c84 166 200 576 235 825 21 153 27 217 32 348 5 121 3 147 -8
148 -8 0 -608 0 -1334 -1 -725 0 -1317 1 -1315 4 3 2 39 7 80 11 41 3 91 8
110 10 19 2 73 7 120 10 47 4 99 8 115 10 17 2 64 6 105 9 41 4 95 9 120 11
25 2 79 7 120 10 41 3 91 8 110 10 19 2 71 6 115 10 99 7 168 13 243 21 l57 6
265 264 c146 144 400 396 565 558 l300 294 -14 39 c-28 80 -160 343 -229 456
-86 141 -206 311 -303 427 -71 86 -220 243 -225 238 -2 -2 -262 -259 -579
-573 -1241 -1227 -1167 -1155 -1069 -1035 38 47 87 108 109 135 22 28 47 59
57 70 24 29 287 354 328 405 19 24 43 52 52 61 54 56 51 3 51 861 l0 791 -109
44 c-159 64 -430 145 -558 167 -16 3 -52 10 -80 15 -28 6 -69 13 -91 16 -22 3
-53 7 -70 10 -137 21 -448 39 -460 27z m681 -3390 l0 -678 -686 0 -686 0 0
678 0 678 686 0 686 0 0 -678z"/>
</g>
</svg>
