<svg viewBox="0 0 512 512" xmlns="http://www.w3.org/2000/svg"><path d="m432 240c-5.696 0-11.296.608-16.672 1.76-7.2-72.736-68.736-129.76-143.328-129.76-8.832 0-16 7.168-16 16v256c0 8.832 7.168 16 16 16h160c44.128 0 80-35.872 80-80 0-44.096-35.872-80-80-80z"/><path d="m208 144c-8.832 0-16 7.168-16 16v224c0 8.832 7.168 16 16 16s16-7.168 16-16v-224c0-8.832-7.168-16-16-16z"/><path d="m144 208c-8.832 0-16 7.168-16 16v160c0 8.832 7.168 16 16 16s16-7.168 16-16v-160c0-8.832-7.168-16-16-16z"/><path d="m80 208c-8.832 0-16 7.168-16 16v160c0 8.832 7.168 16 16 16s16-7.168 16-16v-160c0-8.832-7.168-16-16-16z"/><path d="m16 256c-8.832 0-16 7.168-16 16v96c0 8.832 7.168 16 16 16s16-7.168 16-16v-96c0-8.832-7.168-16-16-16z"/></svg>