<svg fill="none" height="50" viewBox="0 0 50 51" width="50" xmlns="http://www.w3.org/2000/svg"><path d="m34.1378 48.7276-8.2631-8.172-.8745-9.9103h5.0016l5.6051 5.543v.0087l.2272.2162 6.8469 6.7713c-2.4133 2.3867-5.3076 4.2892-8.5432 5.5431zm5.8763-23.8851-10.0123.8649v-4.9467l12.6792-12.53931c2.4132 2.38701 4.3371 5.24921 5.6051 8.44891zm-20.0159-4.0818-5.6051-5.5433-.2272-.2247-6.84685-6.77131c2.41366-2.38666 5.31675-4.28932 8.54315-5.54327l8.2722 8.18088.8658 9.9017zm-9.9947 4.9467v-.0087h-10.0035c0-1.6863.175166-3.3382.49838-4.938.345892-1.7004.87667-3.3589 1.58309-4.9464h11.69083l6.2259 4.9464v4.9467zm4.993 22.6658v-11.5622l5.0017-6.1657h5.002v19.7858c-3.5592 0-6.9343-.7348-10.0037-2.0579zm-7.67745-5.1887c-2.40469-2.3781-4.32859-5.2493-5.59616-8.4489l8.26304-8.1722 10.01227-.856v4.9379zm22.68275-22.4238h-5.0016v-19.786091c3.5588 0 6.943.735151 10.0035 2.067011v11.56188zm19.9982 4.938c0 3.5197-.7344 6.8663-2.0811 9.8929h-11.6911l-6.226-4.9463v-4.9379h10.3181v-.0087z" fill="#fff"/></svg>