<svg class="logo-raadhuis w-32 h-auto" preserveAspectRatio="xMidYMid meet" transform="translate3d(0px, 0px, 0px)" viewBox="0 0 734 272" xmlns="http://www.w3.org/2000/svg" xmlns:xlink="http://www.w3.org/1999/xlink">
                    <g>
                        <g display="block" fill="#000" transform="translate(1.5 1)">
                            <path d="m-420-180v90h90v-90z" display="block" transform="translate(420 180)"/>
                            <path d="m-330-90v90h90v-90z" display="block" transform="translate(420 180)"/>
                            <path d="m-240-45c0 24.85300064 20.14700317 45 45 45 24.85299683 0 45-20.14699936 45-45 0-24.85299683-20.14700317-45-45-45-24.85299683 0-45 20.14700317-45 45z" display="block" transform="translate(330 90)"/>
                            <path d="m-420-90v90h90v-90z" display="block" transform="translate(420 270)"/>
                            <path d="m-240-180v90h90v-90z" display="block" transform="translate(420 212.592834)"/>
                            <path d="m-420 0v90h90v-90z" display="block" transform="translate(510 180)"/>
                            <path d="m-330 0v90h90v-90z" display="block" transform="translate(330 90)"/>
                            <path d="m-240 0v90h90v-90z" display="block" transform="translate(420 180)"/>
                        </g>
                        <g display="block" fill="#000" transform="translate(303.75 .373993)">
                            <path d="m11.25-61.875h-22.5v123.75h22.5z" display="block" transform="translate(11.25 62.625)"/>
                            <g display="block" transform="matrix(1.05926001 0 0 1 -905.667358 -359.945007)">
                                <path d="m-22.5-11.25v22.5h45v-22.5z" transform="translate(877.5 371.445007)"/>
                                <path d="m-22.5-11.25v22.5h45v-22.5z" transform="translate(877.5 427.695007)"/>
                                <path d="m-19.68799973 16.875c9.3199997 0 16.87599969-7.55500031 16.87599969-16.875s-7.55599999-16.875-16.87599969-16.875v-22.5c21.74599982 0 39.37599946 17.62899971 39.37599946 39.375s-17.62999964 39.375-39.37599946 39.375" transform="translate(919.687988 399.570007)"/>
                            </g>
                            <path d="m-3.375-28.125h-27s33.75 56.25 33.75 56.25h27s-33.75-56.25-33.75-56.25z" display="block" transform="matrix(1.03399968 -.03610807 .03624801 1.03800726 66.375 96.875)"/>
                        </g>
                        <g display="block" transform="translate(398.25 22.499996)">
                            <g display="block" mask="url(#z)">
                                <path d="m35.625-157.30499268c-27.95900011 0-50.625 22.66598511-50.625 50.62499237 0 27.95899964 22.66599989 50.625 50.625 50.625 27.95899963 0 50.625-22.66600036 50.625-50.625 0-27.95900726-22.66600037-50.62499237-50.625-50.62499237zm0 78.74999237c-15.53300095 0-28.125-12.59200286-28.125-28.125 0-15.53299713 12.59199905-28.12499237 28.125-28.12499237s28.125 12.59199524 28.125 28.12499237c0 15.53299714-12.59199905 28.125-28.125 28.125z" fill="#000" transform="translate(15 158.054993)"/>
                            </g>
                            <g fill="#000">
                                <path d="m11.25-50.625h-22.5v50.31299999h22.5z" display="block" transform="translate(90 51.375)"/>
                                <path d="m11.25-.156h-22.5v50.781h22.5z" display="block" transform="translate(90 51.375)"/>
                            </g>
                        </g>
                        <g display="block" transform="translate(510.5 22.873997)">
                            <g display="block" mask="url(#w)">
                                <path d="m35.625-157.30499268c-27.95900011 0-50.625 22.66598511-50.625 50.62499237 0 27.95899964 22.66599989 50.625 50.625 50.625 27.95899963 0 50.625-22.66600036 50.625-50.625 0-27.95900726-22.66600037-50.62499237-50.625-50.62499237zm0 78.74999237c-15.53300095 0-28.125-12.59200286-28.125-28.125 0-15.53299713 12.59199905-28.12499237 28.125-28.12499237s28.125 12.59199524 28.125 28.12499237c0 15.53299714-12.59199905 28.125-28.125 28.125z" fill="#000" transform="translate(15 158.054993)"/>
                            </g>
                            <g fill="#000">
                                <path d="m11.25-50.625h-22.5v50.31299999h22.5z" display="block" transform="translate(90 51.375)"/>
                                <path d="m11.25-.156h-22.5v50.781h22.5z" display="block" transform="translate(90 51.375)"/>
                            </g>
                        </g>
                        <g display="block" transform="translate(623.625977 -.626007)">
                            <g display="block" mask="url(#t)">
                                <path d="m35.625-157.30499268c-27.95900011 0-50.625 22.66598511-50.625 50.62499237 0 27.95899964 22.66599989 50.625 50.625 50.625 27.95899963 0 50.625-22.66600036 50.625-50.625 0-27.95900726-22.66600037-50.62499237-50.625-50.62499237zm0 78.74999237c-15.53300095 0-28.125-12.59200286-28.125-28.125 0-15.53299713 12.59199905-28.12499237 28.125-28.12499237s28.125 12.59199524 28.125 28.12499237c0 15.53299714-12.59199905 28.125-28.125 28.125z" fill="#000" transform="translate(15 181.054993)"/>
                            </g>
                            <g fill="#000">
                                <path d="m11.25-73.25h-22.5v72.93799999h22.5z" display="block" transform="translate(90 74.374992)"/>
                                <path d="m11.25-.156h-22.5v50.781h22.5z" display="block" transform="translate(90 74.374992)"/>
                            </g>
                        </g>
                        <g display="block" transform="translate(304 146.25)">
                            <g display="block" mask="url(#q)">
                                <path d="m-11.25-61.875h22.5v123.75h-22.5z" fill="#000" transform="translate(11.25 63.125)"/>
                            </g>
                            <g display="block" mask="url(#p)">
                                <path d="m0-50.625c-24.85300064 0-45 20.14699936-45 45h22.5c0-12.4260006 10.07400036-22.5 22.5-22.5s22.5 10.0739994 22.5 22.5v56.25h22.5v-56.25c0-24.85300064-20.14699936-45-45-45z" fill="#000" transform="translate(45 74.375)"/>
                            </g>
                        </g>
                        <g display="block" transform="translate(405.687988 169.75)">
                            <g display="block" mask="url(#m)">
                                <path d="m22.5-50.625v56.25c0 12.4260006-10.07400036 22.5-22.5 22.5s-22.5-10.0739994-22.5-22.5v-56.25h-22.5v56.25c0 24.85300064 20.14699936 45 45 45s45-20.14699936 45-45v-56.25z" fill="#000" transform="translate(45 50.5)"/>
                            </g>
                            <g display="block" mask="url(#l)">
                                <path d="m11.25-50.625h-22.5v101.25h22.5z" fill="#000" transform="translate(78.75 50.5)"/>
                            </g>
                        </g>
                        <g display="block" transform="translate(507.937988 129.25)">
                            <g display="block" mask="url(#i)">
                                <path d="m11.25-50.625h-22.5v101.25h22.5z" fill="#000" transform="translate(18 91.375)"/>
                            </g>
                            <path d="m16.875 0c0 9.31999969-7.55500031 16.875-16.875 16.875s-16.875-7.55500031-16.875-16.875 7.55500031-16.875 16.875-16.875 16.875 7.55500031 16.875 16.875z" display="block" fill="#000" transform="translate(18 18.25)"/>
                        </g>
                        <g display="block" transform="translate(553.062988 168.811996)">
                            <g display="block" mask="url(#f)">
                                <path d="m172.31599426 85.66400146c-6.37199402-2.89099884-11.41699218-6.81600189-15.13398742-11.77200317-3.7170105-4.95600128-5.75300599-11.62299728-6.10700989-17.64199829h24.95899963c.47000122 3.77899933 2.32800293 8.08300018 5.57499695 10.56199646 3.2440033 2.47800446 7.28601074 3.71700287 12.12600708 3.71700287 4.71800232 0 8.40800476-.94400025 11.06300354-2.83200073 2.65499878-1.88600159 3.98199463-4.30599976 3.98199463-7.25699997 0-3.18599701-1.6230011-5.57600022-4.8670044-7.16899872-3.24699401-1.59299851-8.4079895-3.33300018-15.48899841-5.22200012-7.31799316-1.77000046-13.30599975-3.59899903-17.96600342-5.48799897-4.6639862-1.88600158-8.67298889-4.77799987-12.0369873-8.67300033-3.36399841-3.89400101-5.04499817-9.14400101-5.04499817-15.75399971 0-5.4260006 1.56298828-10.38300085 4.69099426-14.86900068 3.125-4.48300015 7.61099243-8.02399992 13.45199585-10.62100005 5.84100342-2.59399986 12.71499634-3.89400005 20.62200928-3.89400005 11.68299866 0 21.0039978 2.92099953 27.96899414 8.76200008 6.96099854 5.84099985 10.79699707 13.71799946 11.50500488 23.63099957h-23.72000122c-.3540039-3.8939991-1.977005-6.99300003-4.86700439-9.29399967-2.89399719-2.30099964-6.75700379-3.45100022-11.59399414-3.45100022-4.48600769 0-7.93901062.82700062-10.35600281 2.47800064-2.41999817 1.65399933-3.62800598 3.95499993-3.62800598 6.90400029 0 3.30499839 1.65000915 5.81299972 4.95600891 7.52299881 3.30198669 1.71199989 8.43499756 3.45199966 15.3999939 5.22200012 7.08000183 1.76999855 12.92199707 3.60099983 17.52400207 5.48700142 4.60200501 1.88800049 8.58499146 4.80899811 11.94799805 8.76199722 3.36399841 3.95500183 5.1040039 9.17700195 5.22200012 15.66600037 0 5.66399765-1.56599426 10.73900222-4.69099426 15.22200393-3.12800598 4.48600006-7.61100769 7.99599457-13.45201111 10.53199768-5.84098816 2.53700257-12.65699768 3.80599976-20.44599915 3.80599976-8.02600097 0-15.22299194-1.44599915-21.59500122-4.33599854z" fill="#000" transform="translate(-150.787994 11.625)"/>
                            </g>
                        </g>
                    </g>
                </svg>